<svg width="40" height="40" viewBox="0 0 40 40" fill="none" xmlns="http://www.w3.org/2000/svg">
<g clip-path="url(#clip0_17_91)">
<path d="M0 20C0 23.9556 1.17298 27.8224 3.37061 31.1114C5.56824 34.4004 8.69181 36.9638 12.3463 38.4776C16.0009 39.9913 20.0222 40.3874 23.9018 39.6157C27.7814 38.844 31.3451 36.9392 34.1421 34.1421C36.9392 31.3451 38.844 27.7814 39.6157 23.9018C40.3874 20.0222 39.9913 16.0009 38.4776 12.3463C36.9638 8.69181 34.4004 5.56824 31.1114 3.37061C27.8224 1.17298 23.9556 0 20 0C14.6974 0.00573514 9.61368 2.11471 5.8642 5.8642C2.11471 9.61368 0.00573514 14.6974 0 20ZM24.225 10.4883L30.2017 16.465C30.6661 16.9293 31.0344 17.4805 31.2858 18.0872C31.5371 18.6939 31.6664 19.3442 31.6664 20.0008C31.6664 20.6575 31.5371 21.3078 31.2858 21.9144C31.0344 22.5211 30.6661 23.0724 30.2017 23.5367L24.225 29.5117L24.1833 29.5517C24.0274 29.7105 23.8412 29.8365 23.6358 29.9223C23.4304 30.008 23.2098 30.0517 22.9872 30.0508C22.7646 30.0499 22.5445 30.0044 22.3397 29.9171C22.135 29.8297 21.9498 29.7022 21.7952 29.5421C21.6405 29.382 21.5195 29.1925 21.4393 28.9849C21.359 28.7772 21.3212 28.5556 21.328 28.3331C21.3349 28.1106 21.3862 27.8917 21.479 27.6894C21.5718 27.487 21.7042 27.3053 21.8683 27.155L27.3567 21.6667L10 21.6783C9.55797 21.6783 9.13405 21.5027 8.82149 21.1902C8.50893 20.8776 8.33333 20.4537 8.33333 20.0117C8.33333 19.5696 8.50893 19.1457 8.82149 18.8332C9.13405 18.5206 9.55797 18.345 10 18.345L27.355 18.3333L21.8683 12.845C21.7092 12.6913 21.5822 12.5073 21.4948 12.304C21.4075 12.1007 21.3615 11.882 21.3596 11.6607C21.3577 11.4394 21.3998 11.2199 21.4836 11.0151C21.5674 10.8103 21.6912 10.6242 21.8477 10.4677C22.0042 10.3112 22.1903 10.1874 22.3951 10.1036C22.5999 10.0198 22.8194 9.97766 23.0407 9.97958C23.262 9.98151 23.4807 10.0275 23.684 10.1148C23.8874 10.2022 24.0713 10.3292 24.225 10.4883Z" fill="#7B5573"/>
</g>
<defs>
<clipPath id="clip0_17_91">
<rect width="40" height="40" fill="white"/>
</clipPath>
</defs>
</svg>
