<svg width="960" height="1080" viewBox="0 0 960 1080" fill="none" xmlns="http://www.w3.org/2000/svg">
<path d="M1123 -211.897C1264.32 -206.805 1368.23 -8.18404 1343.29 167.519C1318.35 343.222 1164.56 493.46 1062.73 656.431C960.893 819.402 911.015 990.012 800.868 1102.05C688.642 1214.1 518.225 1267.57 362.356 1216.64C208.565 1168.26 69.3218 1015.48 42.3045 842.319C15.2872 669.163 96.3391 473.089 175.313 335.582C254.287 200.622 327.025 124.23 401.843 103.858C476.66 83.487 551.477 119.137 678.251 42.7443C802.946 -31.1018 981.676 -216.99 1123 -211.897Z" fill="url(#paint0_linear_12_178)"/>
<rect x="678" y="325" width="750" height="998" fill="#CD9BC2"/>
<g clip-path="url(#clip0_12_178)">
<path d="M1124.38 378.267C1169.16 456.174 1196.89 503.98 1196.89 548.245C1194.75 592.51 1162.76 633.234 1128.64 666.876C1096.65 702.288 1062.53 728.847 972.961 852.789C885.523 974.961 740.504 1190.97 591.219 1229.93C441.935 1267.11 288.386 1127.23 294.783 982.043C301.181 838.624 469.659 691.664 550.699 569.493C629.607 447.321 623.209 349.938 674.392 273.802C727.708 197.666 842.87 144.548 930.308 169.336C1017.75 195.895 1079.59 302.131 1124.38 378.267Z" fill="url(#paint1_linear_12_178)"/>
<rect x="657" y="756" width="427" height="552" fill="#7B5573"/>
</g>
<defs>
<linearGradient id="paint0_linear_12_178" x1="37" y1="1236" x2="1477.77" y2="-67.4569" gradientUnits="userSpaceOnUse">
<stop stop-color="#CD9BC2"/>
<stop offset="1" stop-color="#CD9BC2"/>
</linearGradient>
<linearGradient id="paint1_linear_12_178" x1="294.59" y1="1236" x2="1351.54" y2="347.055" gradientUnits="userSpaceOnUse">
<stop stop-color="#7B5573"/>
<stop offset="1" stop-color="#7B5573"/>
</linearGradient>
<clipPath id="clip0_12_178">
<rect width="1007" height="1254" fill="white" transform="translate(233 -18)"/>
</clipPath>
</defs>
</svg>
