<svg width="1250" height="1080" viewBox="0 0 1250 1080" fill="none" xmlns="http://www.w3.org/2000/svg">
<path d="M461 147.5C233.5 259 161.5 62.5 226 -8L343 -74.5L278 -130H1361.5L1475 811C1111.17 831.333 372.1 859.8 326.5 811C269.5 750 316 586 461 662C417 532 545 481 650 525.5C633.5 513 583.5 487.5 650 464.5C584 487.327 474 400.5 561.5 347C470.5 402.64 296 251.5 461 147.5Z" fill="#94778B"/>
<path d="M950.008 203.167C1115 116.5 1259.01 216 1259.01 313.667L1367.51 1183.17C910.342 1238.67 -3.19162 1305.57 0.00838489 1129.17C0.00838489 918.167 158.508 886.167 291.008 988.167C263.808 893.367 322.675 809.667 355.508 779.667C437.508 669.167 597.175 720.167 646.508 763.667C644.508 689.667 703.008 681.167 765.008 693.167C721.008 667.167 700.88 660 704 578.5C710.4 411.3 854.008 446.667 919.508 484.167C881.341 422.667 826.65 267.964 950.008 203.167Z" fill="#CD9BC1"/>
</svg>
