<svg width="686" height="156" viewBox="0 0 686 156" fill="none" xmlns="http://www.w3.org/2000/svg">
<path d="M23.125 111.25C23.125 114.625 21.5 116.25 18.125 116.25H10.625C7.25 116.25 5.625 114.625 5.625 111.25V30C5.625 26.625 7.25 25 10.625 25H18.125C21.5 25 23.125 26.625 23.125 30V34.625C27.5 30 33.75 27.5 40.625 27.5C55.125 27.5 67 40.125 67 59.5C67 79.125 53.25 91.5 35.625 91.5C31.375 91.5 27.25 91 23.125 90V111.25ZM35.625 73.5C43.625 73.5 49.5 68.875 49.5 59.5C49.5 51.375 44.625 45.625 37 45.625C28.25 45.625 23.125 51.625 23.125 62.25V71.625C26.875 72.875 30.875 73.5 35.625 73.5ZM81.4551 21.375C75.7051 21.375 70.8301 16.5 70.8301 10.625C70.8301 4.87499 75.7051 -3.57628e-06 81.4551 -3.57628e-06C87.2051 -3.57628e-06 92.0801 4.87499 92.0801 10.625C92.0801 16.5 87.2051 21.375 81.4551 21.375ZM90.2051 85C90.2051 88.375 88.5801 90 85.2051 90H77.7051C74.3301 90 72.7051 88.375 72.7051 85V35C72.7051 31.625 74.3301 30 77.7051 30H85.2051C88.5801 30 90.2051 31.625 90.2051 35V85ZM116.514 87.5C116.514 90.875 114.889 92.5 111.514 92.5H104.014C100.639 92.5 99.0137 90.875 99.0137 87.5V27.5C99.0137 24.125 100.639 22.5 104.014 22.5H111.514C114.889 22.5 116.514 24.125 116.514 27.5V36.875C121.264 29.5 129.139 26 136.139 26C148.264 26 157.264 33.875 157.264 52V85C157.264 88.375 155.639 90 152.264 90H144.764C141.389 90 139.764 88.375 139.764 85V57.625C139.764 48.5 136.139 44.125 130.139 44.125C121.889 44.125 116.514 49.25 116.514 60.75V87.5ZM211.117 91.25C206.992 92.125 206.492 91.25 203.617 86.5L189.617 63.25L182.617 69.625V85C182.617 88.375 180.992 90 177.617 90H170.117C166.742 90 165.117 88.375 165.117 85V7.5C165.117 4.125 166.742 2.49999 170.117 2.49999H177.617C180.992 2.49999 182.617 4.125 182.617 7.5V45.625L204.742 25.25C206.867 23.375 208.992 22.375 211.492 24.875L217.242 30.5C219.617 32.875 220.367 35 217.992 37.125L201.992 51.875L219.992 83.125C222.367 87.125 221.117 89.25 216.617 90.125L211.117 91.25Z" fill="#CD9BC2"/>
<path d="M420.68 137.76C420.68 141.216 419.016 142.88 415.56 142.88H407.88C404.424 142.88 402.76 141.216 402.76 137.76V54.56C402.76 51.104 404.424 49.44 407.88 49.44H415.56C419.016 49.44 420.68 51.104 420.68 54.56V59.296C425.16 54.56 431.56 52 438.6 52C453.448 52 465.608 64.928 465.608 84.768C465.608 104.864 451.528 117.536 433.48 117.536C429.128 117.536 424.904 117.024 420.68 116V137.76ZM433.48 99.104C441.672 99.104 447.688 94.368 447.688 84.768C447.688 76.448 442.696 70.56 434.888 70.56C425.928 70.56 420.68 76.704 420.68 87.584V97.184C424.52 98.464 428.616 99.104 433.48 99.104ZM512.282 110.88V106.4C507.418 113.952 499.354 117.536 492.186 117.536C479.77 117.536 470.554 109.472 470.554 90.912V57.12C470.554 53.664 472.218 52 475.674 52H483.354C486.81 52 488.474 53.664 488.474 57.12V85.152C488.474 94.496 492.186 98.976 498.33 98.976C506.778 98.976 512.282 93.728 512.282 81.952V52C512.282 48.544 513.946 46.88 517.402 46.88H525.082C528.538 46.88 530.202 48.544 530.202 52V110.88C530.202 114.336 528.538 116 525.082 116H517.402C513.946 116 512.282 114.336 512.282 110.88ZM557.7 110.88C557.7 114.336 556.036 116 552.58 116H544.26C540.804 116 539.14 114.336 539.14 110.88V28.96C539.14 25.504 540.804 23.84 544.26 23.84H552.58C556.036 23.84 557.7 25.504 557.7 28.96V110.88ZM564.913 71.072C564.913 59.296 573.873 50.464 588.977 50.464C595.761 50.464 604.593 52.256 610.097 56.352C612.145 57.888 611.505 59.68 610.609 61.728L607.921 68.384C607.025 70.56 605.105 71.456 603.185 70.688C597.041 68.256 592.433 66.72 587.185 66.72C583.857 66.72 582.193 67.872 582.193 70.176C582.193 79.392 613.425 71.84 613.425 95.008C613.425 111.648 600.241 117.536 588.337 117.536C580.017 117.536 571.185 115.488 565.169 110.624C563.121 108.96 563.889 107.296 564.657 105.248L567.217 98.08C567.985 95.904 570.033 94.624 571.953 95.776C576.177 98.08 582.961 100.64 589.361 100.64C593.585 100.64 596.145 99.744 596.145 97.184C596.145 87.968 564.913 95.008 564.913 71.072ZM649.359 117.536C629.007 117.536 615.823 103.84 615.823 84C615.823 65.696 626.703 50.464 647.951 50.464C664.463 50.464 675.599 61.6 675.599 79.392C675.599 84.512 675.087 86.688 670.607 87.2L634.895 91.296C637.455 96.928 643.087 100.896 651.791 100.896C656.655 100.896 662.159 97.952 666.511 95.52C668.431 94.368 670.351 95.392 671.247 97.824L673.807 104.48C674.703 106.912 675.343 108.192 673.295 109.856C667.023 114.848 657.551 117.536 649.359 117.536ZM646.671 67.104C640.015 67.104 635.663 70.048 634.127 77.472L657.167 74.784C656.015 70.176 652.175 67.104 646.671 67.104Z" fill="#7B5573"/>
<mask id="mask0_84_18" style="mask-type:alpha" maskUnits="userSpaceOnUse" x="204" y="18" width="221" height="131">
<path d="M414 55.5H365.834C364.136 55.5 362.623 56.5718 362.06 58.1735L334 138V138C333.398 138 332.86 137.627 332.649 137.064L292.781 30.7497C292.144 29.0502 289.754 29.0101 289.06 30.6873L267.511 82.7647C267.202 83.5124 266.472 84 265.663 84H215" stroke="#7B5573" stroke-width="21" stroke-linecap="round"/>
</mask>
<g mask="url(#mask0_84_18)">
<path d="M431 5H198V158H431V5Z" fill="url(#paint0_linear_84_18)"/>
</g>
<defs>
<linearGradient id="paint0_linear_84_18" x1="213.5" y1="93" x2="412" y2="95" gradientUnits="userSpaceOnUse">
<stop stop-color="#CD9BC2"/>
<stop offset="0.477083" stop-color="#CD9BC2"/>
<stop offset="1" stop-color="#7B5573"/>
</linearGradient>
</defs>
</svg>
