<svg width="923" height="1080" viewBox="0 0 923 1080" fill="none" xmlns="http://www.w3.org/2000/svg">
<path d="M1086 -211.897C1227.32 -206.805 1331.23 -8.18404 1306.29 167.519C1281.35 343.222 1127.56 493.46 1025.73 656.431C923.893 819.402 874.015 990.012 763.868 1102.05C651.642 1214.1 481.225 1267.57 325.356 1216.64C171.565 1168.26 32.3218 1015.48 5.30452 842.319C-21.7128 669.163 59.3391 473.089 138.313 335.582C217.287 200.622 290.025 124.23 364.843 103.858C439.66 83.487 514.477 119.137 641.251 42.7443C765.946 -31.1018 944.676 -216.99 1086 -211.897Z" fill="url(#paint0_linear_17_85)"/>
<defs>
<linearGradient id="paint0_linear_17_85" x1="0" y1="1236" x2="1440.77" y2="-67.4569" gradientUnits="userSpaceOnUse">
<stop stop-color="#CD9BC2"/>
<stop offset="1" stop-color="#CD9BC2"/>
</linearGradient>
</defs>
</svg>
