<svg width="710" height="942" viewBox="0 0 710 942" fill="none" xmlns="http://www.w3.org/2000/svg">
<path d="M829.787 215.089C874.572 292.995 902.297 340.802 902.297 385.067C900.164 429.332 868.175 470.056 834.052 503.697C802.063 539.109 767.941 565.668 678.37 689.611C590.932 811.782 445.913 1027.8 296.629 1066.75C147.345 1103.93 -6.20463 964.054 0.193271 818.865C6.59117 675.446 175.069 528.486 256.109 406.314C335.017 284.142 328.619 186.759 379.802 110.623C433.118 34.4871 548.28 -18.631 635.718 6.15742C723.156 32.7165 785.002 138.953 829.787 215.089Z" fill="url(#paint0_linear_17_87)"/>
<path d="M961.787 408.089C1006.57 485.995 1034.3 533.802 1034.3 578.067C1032.16 622.332 1000.17 663.056 966.052 696.697C934.063 732.109 899.941 758.668 810.37 882.611C722.932 1004.78 577.913 1220.8 428.629 1259.75C279.345 1296.93 125.795 1157.05 132.193 1011.86C138.591 868.446 307.069 721.486 388.109 599.314C467.017 477.142 460.619 379.759 511.802 303.623C565.118 227.487 680.28 174.369 767.718 199.157C855.156 225.716 917.002 331.953 961.787 408.089Z" fill="url(#paint1_linear_17_87)"/>
<defs>
<linearGradient id="paint0_linear_17_87" x1="0" y1="1072.82" x2="1056.95" y2="183.877" gradientUnits="userSpaceOnUse">
<stop stop-color="#7B5573"/>
<stop offset="1" stop-color="#7B5573"/>
</linearGradient>
<linearGradient id="paint1_linear_17_87" x1="132" y1="1265.82" x2="1188.95" y2="376.877" gradientUnits="userSpaceOnUse">
<stop stop-color="#7B5573"/>
<stop offset="1" stop-color="#7B5573"/>
</linearGradient>
</defs>
</svg>
