<svg width="512" height="512" viewBox="0 0 512 512" fill="none" xmlns="http://www.w3.org/2000/svg">
<g clip-path="url(#clip0_306_16)">
<path d="M426.667 170.667C426.683 138.278 417.483 106.553 400.141 79.1982C382.799 51.8433 358.031 29.988 328.731 16.1853C299.43 2.38264 266.807 -2.79747 234.672 1.25013C202.537 5.29773 172.217 18.4059 147.255 39.0434C122.292 59.6809 103.718 86.9955 93.7005 117.796C83.6836 148.597 82.638 181.613 90.6858 212.986C98.7337 244.359 115.543 272.794 139.149 294.97C160.34 314.875 186.222 329 214.309 336.075C219.895 337.482 224 342.385 224 348.145V393.333C224 399.961 218.627 405.333 212 405.333H182.667C176.039 405.333 170.667 410.706 170.667 417.333V457.333C170.667 463.961 176.039 469.333 182.667 469.333H212C218.627 469.333 224 474.706 224 481.333V500C224 506.627 229.373 512 236 512H276C282.627 512 288 506.627 288 500V481.333C288 474.706 293.373 469.333 300 469.333H329.333C335.961 469.333 341.333 463.961 341.333 457.333V417.333C341.333 410.706 335.961 405.333 329.333 405.333H300C293.373 405.333 288 399.961 288 393.333V348.134C288 342.379 292.099 337.479 297.679 336.068C332.776 327.194 364.241 307.372 387.431 279.351C412.733 248.778 426.605 210.352 426.667 170.667ZM149.333 170.667C149.333 149.57 155.589 128.947 167.31 111.406C179.031 93.8646 195.69 80.1929 215.18 72.1195C234.671 64.0462 256.118 61.9338 276.81 66.0496C297.501 70.1654 316.507 80.3244 331.425 95.242C346.342 110.16 356.501 129.166 360.617 149.857C364.733 170.548 362.621 191.995 354.547 211.486C346.474 230.977 332.802 247.636 315.261 259.357C297.72 271.077 277.097 277.333 256 277.333C227.721 277.3 200.609 266.051 180.613 246.054C160.616 226.057 149.367 198.946 149.333 170.667Z" fill="#CD9BC2"/>
</g>
<defs>
<clipPath id="clip0_306_16">
<rect width="512" height="512" fill="white"/>
</clipPath>
</defs>
</svg>
